# xmcd CD database file
# Generated: Tue May 20 00:11:38 2003 by KSCD
# 
# Track frame offsets:
#       150
#       21213
#       35950
#       61431
#       88016
#       108996
#       128089
#       150068
#       179295
#
# Disc length: 2714 seconds
#
# Revision: 1
# Processed by: cddbd v1.4PL0 Copyright (c) Steve Scherf et al.
# Submitted via: Kscd 1.3.3
#
DISCID=6c0a9809
DTITLE=Christine Horn - Walk With Me
DYEAR=1900
DGENRE=
TTITLE0=Godsend
TTITLE1=While You Were Out
TTITLE2=Dear Dad
TTITLE3=Cup of Joe
TTITLE4=Made for T.V.
TTITLE5=Watch Your Man
TTITLE6=Sunday Shoes
TTITLE7=Control Freak
TTITLE8=See You There
EXTD=
EXTT0=
EXTT1=
EXTT2=
EXTT3=
EXTT4=
EXTT5=
EXTT6=
EXTT7=
EXTT8=
PLAYORDER=
